<svg width="100" height="100" xmlns="http://www.w3.org/2000/svg"><g fill="#61C5B8" fill-rule="nonzero"><path d="M50 100C22.386 100 0 77.614 0 50S22.386 0 50 0s50 22.386 50 50a50 50 0 0 1-50 50zm0-97.16C23.954 2.84 2.84 23.954 2.84 50c0 26.046 21.114 47.16 47.16 47.16 26.046 0 47.16-21.114 47.16-47.16A47.15 47.15 0 0 0 50 2.84z"/><path d="M76.26 42.45A15.78 15.78 0 0 0 71 33.2a14.47 14.47 0 0 0-9.33-3.49 13.9 13.9 0 0 0-6.84 1.8A14.84 14.84 0 0 0 50 35.73a14.34 14.34 0 0 0-15-5.61 15.08 15.08 0 0 0-10.6 9.94 16.44 16.44 0 0 0 2.43 15.71 43.07 43.07 0 0 0 3.29 3.59c.33.34.66.67 1 1l9 9.22 7.49 7.71a3.17 3.17 0 0 0 4.9 0l7.86-8.1 3.27-3.35.35-.36c2.74-2.8 5.58-5.7 8.31-8.62a16.05 16.05 0 0 0 3.96-14.41zM28.5 53.63a14 14 0 0 1-1.63-12.7 11.9 11.9 0 0 1 21.79-2.52l.25.39a1.3 1.3 0 0 0 1.12.6 1.33 1.33 0 0 0 1.11-.65 12.81 12.81 0 0 1 4.93-5 11.34 11.34 0 0 1 5.57-1.47 11.88 11.88 0 0 1 7.63 2.86 13.23 13.23 0 0 1 4.41 7.74 13.5 13.5 0 0 1-1.83 10.23l-2 2.57c-2.57 2.74-5.23 5.46-7.81 8.09-1.17 1.19-2.38 2.43-3.56 3.65l-7.86 8.09a1 1 0 0 1-.56.36 1 1 0 0 1-.58-.37l-7.49-7.72-.79-.78c-2.71-2.78-5.48-5.64-8.21-8.47l-1-1c-.41-.42-.83-.84-1.24-1.27l-2.25-2.63z"/></g></svg>
