<?xml version="1.0" encoding="UTF-8"?>
<svg width="36px" height="36px" viewBox="0 0 36 36" version="1.1" xmlns="http://www.w3.org/2000/svg" xmlns:xlink="http://www.w3.org/1999/xlink">
    <!-- Generator: Sketch 53 (72520) - https://sketchapp.com -->
    <title>ico-courriel-w</title>
    <desc>Created with Sketch.</desc>
    <g id="Page-1" stroke="none" stroke-width="1" fill="none" fill-rule="evenodd">
        <g id="Major_Desktop" transform="translate(-1355.000000, -40.000000)" fill="#FFFFFF" fill-rule="nonzero">
            <g id="•-Header">
                <g id="CTA-Rendez-vous" transform="translate(1143.000000, 40.000000)">
                    <g id="ico-courriel-w" transform="translate(212.000000, 0.000000)">
                        <path d="M18,36 C8.0588745,36 1.21743675e-15,27.9411255 0,18 C-1.21743675e-15,8.0588745 8.0588745,1.82615513e-15 18,0 C27.9411255,-1.82615513e-15 36,8.0588745 36,18 C36,22.7738968 34.1035769,27.3522672 30.7279221,30.7279221 C27.3522672,34.1035769 22.7738968,36 18,36 Z M18,1.0224 C8.62353043,1.0224 1.0224,8.62353043 1.0224,18 C1.0224,27.3764696 8.62353043,34.9776 18,34.9776 C27.3764696,34.9776 34.9776,27.3764696 34.9776,18 C34.9785551,13.4969678 33.1901556,9.17809381 30.0060309,5.99396911 C26.8219062,2.80984442 22.5030322,1.02144485 18,1.0224 Z" id="Shape"></path>
                        <path d="M26.4527057,13.0171574 L20.851752,18.4669604 L26.4968077,23.9376304 C26.7990789,23.5300033 26.9619844,23.0444616 26.9635538,22.5464874 L26.9635538,14.4430791 C26.9555182,13.9288346 26.7768068,13.4300008 26.4527057,13.0171574 M24.4240138,12.0190123 L10.5723113,12.0190123 C10.1374765,12.0128515 9.70957317,12.1225202 9.33745536,12.3354973 L15.952755,18.7660561 C16.3663618,19.1578932 16.9276093,19.3780617 17.5128632,19.3780617 C18.0981171,19.3780617 18.6593646,19.1578932 19.0729714,18.7660561 L19.0729714,18.7660561 L25.6882711,12.3354973 C25.3121365,12.1254791 24.8827821,12.0160897 24.4460648,12.0190123 M15.1846452,19.4685834 L14.8906319,19.1694876 L9.24925137,24.6401577 C9.65045281,24.8637834 10.1067081,24.9837168 10.5723113,24.9879434 L24.4240138,24.9879434 C24.8840961,24.9854934 25.334911,24.865321 25.7286979,24.6401577 L20.124069,19.1903547 L19.815355,19.4685834 C18.5704779,20.6689113 16.5353393,20.6937613 15.2581486,19.5242291 L15.1993459,19.4685834 M8.49951741,23.9376304 L14.1555986,18.4460932 L8.5436194,13.0171574 C8.22619435,13.4317463 8.05630181,13.9311124 8.05849743,14.4430791 L8.05849743,22.5534431 C8.05526179,23.0484484 8.20887755,23.5330103 8.49951741,23.9445861 M10.5723113,11 L24.4240138,11 C26.4138318,11.0248036 28.0102146,12.5634281 27.9999508,14.4465569 L27.9999508,22.5534431 C28.0102146,24.4365719 26.4138318,25.9751964 24.4240138,26 L10.5723113,26 C8.58393395,25.9733057 6.98976533,24.4352345 7.00004948,22.5534431 L7.00004948,14.4430791 C6.98978551,12.5618709 8.58452309,11.0248034 10.5723113,11" id="Shape"></path>
                    </g>
                </g>
            </g>
        </g>
    </g>
</svg>