<svg width="100" height="100" xmlns="http://www.w3.org/2000/svg"><g fill="#61C5B8" fill-rule="nonzero"><path d="M50 100C22.386 100 0 77.614 0 50S22.386 0 50 0s50 22.386 50 50a50 50 0 0 1-50 50zm0-97.16C23.954 2.84 2.84 23.954 2.84 50c0 26.046 21.114 47.16 47.16 47.16 26.046 0 47.16-21.114 47.16-47.16A47.15 47.15 0 0 0 50 2.84z"/><path d="M66.75 75.41a2.43 2.43 0 0 1-1.75-.75l-8.2-8.47H28.35a3.68 3.68 0 0 1-3.67-3.67V31.59a3.68 3.68 0 0 1 3.67-3.67h43.3a3.69 3.69 0 0 1 3.68 3.67v30.93a3.69 3.69 0 0 1-3.68 3.67H69.2V73a2.45 2.45 0 0 1-2.45 2.45v-.04zm-38.4-45a1.22 1.22 0 0 0-1.22 1.22v30.89c0 .674.546 1.22 1.22 1.22h29c.333.002.65.14.88.38L66.78 73v-8A1.23 1.23 0 0 1 68 63.73h3.67a1.24 1.24 0 0 0 1.21-1.21V31.59a1.23 1.23 0 0 0-1.23-1.22l-43.3.04z"/><path d="M33.25 40.17h23.7v2.45h-23.7zM33.25 35.27h33.5v2.45h-33.5zM33.25 45.07h15.5v2.45h-15.5z"/></g></svg>
