<svg width="100" height="100" xmlns="http://www.w3.org/2000/svg"><g fill="#61C5B8" fill-rule="nonzero"><path d="M50 100C22.386 100 0 77.614 0 50S22.386 0 50 0s50 22.386 50 50a50 50 0 0 1-50 50zm0-97.16C23.954 2.84 2.84 23.954 2.84 50c0 26.046 21.114 47.16 47.16 47.16 26.046 0 47.16-21.114 47.16-47.16A47.15 47.15 0 0 0 50 2.84z"/><path d="M50 25.62a1.22 1.22 0 0 1-1.22-1.21v-4.88a1.22 1.22 0 1 1 2.44 0v4.88A1.22 1.22 0 0 1 50 25.62zM45.12 81.69A6.1 6.1 0 0 1 39 75.61a1.22 1.22 0 0 1 2.44 0 3.66 3.66 0 1 0 7.31.38 2.41 2.41 0 0 0 0-.38V51.22a1.22 1.22 0 1 1 2.44 0v24.37a6.12 6.12 0 0 1-6.07 6.1z"/><path d="M64.63 54.88h-2.44C62.19 39 56.61 25.62 50 25.62c-6.61 0-12.19 13.38-12.19 29.26h-2.44c0-17.77 6.43-31.69 14.63-31.69 8.2 0 14.63 13.92 14.63 31.69z"/><path d="M63.41 56.09a1.3 1.3 0 0 1-.64-.17A27.48 27.48 0 0 0 50 52.44a27.48 27.48 0 0 0-12.77 3.48 1.24 1.24 0 0 1-1.48-.16s-3.54-3.32-7.69-3.32c-2.772.08-5.48.85-7.88 2.24a1.22 1.22 0 0 1-1.87-1c0-6.91 3.47-14.57 9.28-20.51 6.28-6.42 14.24-10 22.41-10s16.13 3.54 22.42 10c5.8 5.94 9.27 13.6 9.27 20.51a1.23 1.23 0 0 1-1.25 1.19 1.25 1.25 0 0 1-.62-.19 16.69 16.69 0 0 0-7.88-2.24c-4.18 0-7.66 3.28-7.69 3.32a1.25 1.25 0 0 1-.84.33zM50 50a29.8 29.8 0 0 1 13.26 3.4 14.63 14.63 0 0 1 8.68-3.4 18.46 18.46 0 0 1 7.2 1.6c-1.29-12.23-13.8-26-29.14-26s-27.85 13.75-29.14 26a18.46 18.46 0 0 1 7.2-1.6 14.63 14.63 0 0 1 8.68 3.4A29.8 29.8 0 0 1 50 50z"/></g></svg>
