<svg width="159" height="45" xmlns="http://www.w3.org/2000/svg"><g fill="#FFF" fill-rule="nonzero"><path d="M73.038 19.571l-6.834 7.422a.931.931 0 0 1-.704.313.916.916 0 0 1-.706-.313l-6.832-7.422v8.424H56V17.02c.007-.418.251-.792.62-.946a.945.945 0 0 1 1.066.24L65.5 24.78l7.814-8.466a.945.945 0 0 1 1.066-.241c.369.154.613.528.62.946V28h-1.962v-8.429zM79.943 24.345V28H78v-8.754a3.351 3.351 0 0 1 .89-2.297A2.946 2.946 0 0 1 81.046 16h11.908a2.946 2.946 0 0 1 2.156.949c.571.609.892 1.436.89 2.297V28h-1.943v-3.655H79.943zm14.114-2.069v-3.03c0-.649-.494-1.175-1.103-1.175H81.046c-.61 0-1.103.526-1.103 1.175v3.03h14.114zM115 16v8.756a3.227 3.227 0 0 1-.948 2.293c-.61.609-1.438.951-2.301.951H99v-2.069h12.75c.312.006.612-.12.825-.345a1.13 1.13 0 0 0 .347-.83V16H115zM136.996 24.76a3.346 3.346 0 0 1-.89 2.291c-.57.608-1.344.95-2.152.949h-11.908a2.948 2.948 0 0 1-2.155-.947 3.346 3.346 0 0 1-.891-2.294v-5.516c.006-1.788 1.366-3.237 3.046-3.243h11.908c1.68.006 3.04 1.455 3.046 3.243l-.004 5.516zm-1.939-5.517c0-.648-.494-1.174-1.103-1.174h-11.908c-.61 0-1.103.526-1.103 1.174v5.516c0 .649.494 1.174 1.103 1.174h11.908c.61 0 1.103-.525 1.103-1.174v-5.516zM142.022 24.044v3.744h-2.02v-9.269a2.351 2.351 0 0 1 .873-1.947 2.545 2.545 0 0 1 1.631-.572h12.495a4.05 4.05 0 0 1 2.6.923c.93.741 1.397 1.778 1.399 3.11a4.094 4.094 0 0 1-.918 2.613 3.506 3.506 0 0 1-1.725 1.206l1.904 2.033.688.73L157.486 28l-.689-.729-2.411-2.572-.61-.655h-11.754zM155 22.012c.765 0 1.318-.276 1.661-.826.165-.286.266-.605.296-.934a1.29 1.29 0 0 0 .02-.231c0-.775-.272-1.333-.82-1.67a2.17 2.17 0 0 0-.936-.298l-.23-.02h-12.486a.409.409 0 0 0-.473.36V22.011h12.968zM22.503 45A22.5 22.5 0 1 1 45 22.503C44.985 34.92 34.921 44.985 22.503 45zm0-42.638a20.14 20.14 0 1 0 20.138 20.14c-.013-11.117-9.021-20.126-20.138-20.14z"/><path d="M30.038 19.574l-6.833 7.414a.944.944 0 0 1-.704.312.925.925 0 0 1-.706-.312l-6.833-7.414v8.414H13v-10.97c.007-.418.251-.791.62-.945a.946.946 0 0 1 1.066.24l7.815 8.469 7.813-8.457a.946.946 0 0 1 1.066-.24c.369.154.613.527.62.945V28h-1.962v-8.426z"/></g></svg>
